# xmcd
#
# Track frame offsets:
#	183
#	13353
#	23358
#	34355
#	44695
#	59418
#	73020
#	84563
#	96275
#	107683
#	115773
#	144275
#	155875
#	172138
#	187063
#	202823
#	214133
#	224803
#	238190
#	255945
#
# Disc length: 3564 seconds
#
# Revision: 0
# Processed by: cddbd v1.5.1PL0 Copyright (c) Steve Scherf et al.
# Submitted via: dBpowerAMP V4.0
#
DISCID=2f0dea14
DTITLE=Chris Farlowe - R&B Years
DYEAR=1994
DGENRE=R&B
TTITLE0=I Remember
TTITLE1=Push Push
TTITLE2=Girl Trouble
TTITLE3=Itty Bitty Pieces
TTITLE4=Just A Dream
TTITLE5=What You Gonna Do
TTITLE6=Hey,Hey,Hey
TTITLE7=Hound Dog
TTITLE8=Buzz With The Fuzz
TTITLE9=You're The One
TTITLE10=Stormy Monday (Pts 1 and 2)
TTITLE11=Voodoo
TTITLE12=Think
TTITLE13=Lipstick Traces
TTITLE14=Don't Play That Song
TTITLE15=Rockin' Pneumonia
TTITLE16=Baby Make It Soon
TTITLE17=Cuttin' In
TTITLE18=North South East West
TTITLE19=My Way Of Giving
EXTD=Chris Farlowe - The R&B Years, Charly Cat # CDRB5
EXTT0=
EXTT1=
EXTT2=
EXTT3=
EXTT4=
EXTT5=
EXTT6=
EXTT7=
EXTT8=
EXTT9=
EXTT10=
EXTT11=
EXTT12=
EXTT13=
EXTT14=
EXTT15=
EXTT16=
EXTT17=
EXTT18=
EXTT19=
PLAYORDER=
